<svg id="Capa_1" enable-background="new 0 0 512 512" height="512" viewBox="0 0 512 512" width="512" xmlns="http://www.w3.org/2000/svg" xmlns:xlink="http://www.w3.org/1999/xlink"><linearGradient id="SVGID_1_" gradientUnits="userSpaceOnUse" x1="256" x2="256" y1="512" y2="0"><stop offset="0" stop-color="#5558ff"/><stop offset="1" stop-color="#00c0ff"/></linearGradient><g><g><g><path d="m467.377 331.146c-1.67-6.255-7.148-10.723-13.594-11.104l-63.439-3.801-22.914-13.229 29.78-3.58c8.232-.996 14.092-8.467 13.096-16.685-.996-8.262-8.613-14.15-16.67-13.11l-69.516 8.368-16.796-9.697 1.703-1.703c5.859-5.859 5.859-15.352 0-21.211l-1.703-1.703 16.796-9.697 69.516 8.368c8.213.978 15.688-4.875 16.67-13.11.996-8.218-4.863-15.688-13.096-16.685l-29.78-3.58 22.914-13.229 63.439-3.801c6.445-.381 11.924-4.849 13.594-11.104l10.957-40.986c2.139-7.998-2.607-16.216-10.605-18.354l-40.957-10.986c-6.211-1.699-12.861.835-16.406 6.226l-35.01 53.015-22.92 13.232 11.786-27.576c3.252-7.617-.293-16.421-7.91-19.688-7.588-3.237-16.436.293-19.688 7.91l-27.505 64.362-23.76 13.718-14.359-14.359v-21.357l42.012-56.016c4.951-6.621 3.604-16.025-3.018-20.991-6.592-4.922-15.996-3.647-21.006 3.003l-17.988 23.987v-26.448l28.418-56.836c2.9-5.771 1.758-12.744-2.813-17.314l-30-31c-5.859-5.859-15.352-5.859-21.211 0l-30 31c-4.57 4.57-5.713 11.543-2.813 17.314l28.419 56.836v26.448l-17.988-23.987c-5.01-6.68-14.385-7.939-21.006-3.003-6.621 4.966-7.969 14.37-3.018 20.991l42.012 56.016v21.357l-14.359 14.359-23.76-13.718-27.507-64.362c-3.251-7.617-12.157-11.147-19.687-7.91-7.617 3.267-11.162 12.07-7.91 19.688l11.787 27.576-22.919-13.233-35.01-53.015c-3.545-5.391-10.195-7.954-16.406-6.226l-40.957 10.986c-7.998 2.139-12.744 10.356-10.605 18.354l10.957 40.986c1.67 6.255 7.148 10.723 13.594 11.104l63.439 3.801 22.914 13.229-29.78 3.58c-8.232.996-14.092 8.467-13.096 16.685.983 8.243 8.465 14.087 16.67 13.11l69.516-8.368 16.796 9.697-1.703 1.703c-5.859 5.859-5.859 15.352 0 21.211l1.703 1.703-16.796 9.697-69.516-8.368c-7.998-.894-15.674 4.863-16.67 13.11-.996 8.218 4.863 15.688 13.096 16.685l29.78 3.58-22.914 13.229-63.439 3.801c-6.445.381-11.924 4.849-13.594 11.104l-10.957 40.986c-2.139 7.998 2.607 16.216 10.605 18.354l40.957 10.986c6.135 1.673 12.824-.777 16.406-6.226l35.01-53.015 22.919-13.23-11.786 27.576c-3.252 7.617.293 16.421 7.91 19.688 7.414 3.194 16.37-.136 19.687-7.91l27.507-64.362 23.76-13.718 14.358 14.359v21.357l-42.012 56.016c-4.951 6.621-3.604 16.025 3.018 20.991 6.621 4.951 16.025 3.677 21.006-3.003l17.988-23.987v26.448l-28.418 56.836c-2.9 5.771-1.758 12.744 2.813 17.314l30 31c2.93 2.93 6.768 4.395 10.605 4.395s7.676-1.465 10.605-4.395l30-31c4.57-4.57 5.713-11.543 2.813-17.314l-28.418-56.836v-26.448l17.988 23.987c4.982 6.635 14.377 7.975 21.006 3.003 6.621-4.966 7.969-14.37 3.018-20.991l-42.012-56.016v-21.357l14.359-14.359 23.76 13.718 27.505 64.362c3.318 7.773 12.273 11.104 19.688 7.91 7.617-3.267 11.162-12.07 7.91-19.688l-11.786-27.576 22.919 13.233 35.01 53.015c3.585 5.453 10.282 7.896 16.406 6.226l40.957-10.986c7.998-2.139 12.744-10.356 10.605-18.354z" fill="url(#SVGID_1_)"/></g></g></g></svg>